<?xml version="1.0" encoding="utf-8"?>
<!-- Generator: Adobe Illustrator 25.4.1, SVG Export Plug-In . SVG Version: 6.00 Build 0)  -->
<svg version="1.1" xmlns="http://www.w3.org/2000/svg" xmlns:xlink="http://www.w3.org/1999/xlink" x="0px" y="0px"
	 viewBox="0 0 1200 326.86" style="enable-background:new 0 0 1200 326.86;" xml:space="preserve">
<style type="text/css">
	.st0{fill:#FF0000;}
</style>
<g id="Calque_1">
	<path class="st0" d="M1146.26,293.39v-32.94h-3.92v-13.02h2.32v-1.31h-10.27v-4.1h-1.1v4.1h-3.28v-4.78h-0.82v4.78h-4.28v1.31h2.53
		v13.02h-20.95v30.25h-20.4l-0.74,2.69h-29.54V274.2h-27.52l-10.42-75.54h-1.56v-9.07h-5.48v9.07h-1.36v-3.4h-3.83v3.4h-7.94v-7.91
		h-2.19v-5.5h-15.6v5.5h-2.19v7.91h-2.19v45.38h-13.86V128.9h-4.56v-25.25h-1.46v25.25h-3.46V93.87h-1.46v35.02h-3.01v-18.96h-1.46
		v18.96h-26.9v81.72h-29.91v52.94h-19.48l-0.22,0l-53.82-94.12l-53.4,94.11h-20.5v-27.17h-7.33v-51.6h2.85v-1.12h-62.94v1.12h2.85
		v26.02h-6.17l-5.88,29.65v-97.25h-2.58v-35.22h-13.01v-13.4h-6.96V83.31h-2.44V64h-0.59v19.31h-2.44v11.27h-6.96v13.41h-12.9v35.22
		h-2.69v63.94h-20v72.6h-66.37V154.49h5.33v-1.71h-5.33v-3.07h-6.76v-5.05H466.4v5.05h-6.76v3.07h-5.33v1.71h5.33v67.89h-9.04
		v-12.74h-55.8v15.55h-12.17v72.93h-19.69V159.49h-6.57v-6.44h-5.2v-17.04h-1.09v17.04h-2.46v-21.32h-1.09v21.32h-3.02v6.44h-1.62
		v94.67H301.1v-55.51h1.91v-3.76h-12.59v-10.2h-6.02v10.2h-5.48v-10.2h-5.48v10.2h-10.65v-10.2h-32.58v10.2h-7.61v3.76h4.32v20.92
		H214.9v47.2h-16.52v-12.61h-18.4v27.49h-22.24v11.73h-49.87l-3.76-24.63H90.24v-36.88h1.72v-3.33h-6.74H84.4h-4.65h-0.83H50.86
		v3.33h1.91v82.27H0V327h1076.05h7.21H1200v-33.61H1146.26z M769,263.54h-3.21l50.16-88.38l50.55,88.41l-94.72-0.01L769,263.54z"/>
</g>
<g id="Calque_3">
</g>
</svg>
