<?xml version="1.0" encoding="utf-8"?>
<!-- Generator: Adobe Illustrator 25.4.1, SVG Export Plug-In . SVG Version: 6.00 Build 0)  -->
<svg version="1.1" id="Calque_1" xmlns="http://www.w3.org/2000/svg" xmlns:xlink="http://www.w3.org/1999/xlink" x="0px" y="0px"
	 viewBox="0 0 119.1 62.4" style="enable-background:new 0 0 119.1 62.4;" xml:space="preserve">
<style type="text/css">
	.st0{fill:#FF0000;}
</style>
<g>
	<path class="st0" d="M0,0v62.4h119.1V0H0z M113.4,56.7H5.7v-51h107.7V56.7z"/>
	<path class="st0" d="M37.8,31.2c0,12,9.7,21.7,21.7,21.7c12,0,21.7-9.7,21.7-21.7c0-12-9.7-21.7-21.7-21.7
		C47.5,9.4,37.8,19.2,37.8,31.2z M59.5,15.1c8.9,0,16.1,7.2,16.1,16.1c0,8.9-7.2,16.1-16.1,16.1c-8.9,0-16.1-7.2-16.1-16.1
		C43.5,22.3,50.7,15.1,59.5,15.1z"/>
	<path class="st0" d="M40.5,48.2c-4.2-4.7-6.5-10.7-6.5-17s2.3-12.3,6.5-17l4.2-4.7H9.4v43.5h35.3L40.5,48.2z M29.1,37.8H15.1V34
		h13.4C28.6,35.3,28.8,36.6,29.1,37.8z M28.5,28.3H15.1v-3.8h13.9C28.8,25.8,28.6,27.1,28.5,28.3z M15.1,47.2v-3.8h15.7
		c0.6,1.3,1.2,2.6,1.9,3.8H15.1z M30.9,18.9H15.1v-3.8h17.7C32.1,16.3,31.4,17.6,30.9,18.9z"/>
	<path class="st0" d="M85,31.2c0,6.3-2.3,12.3-6.5,17l-4.2,4.7h35.3V9.4H74.3l4.2,4.7C82.7,18.9,85,24.9,85,31.2z M90,24.6h13.9v3.8
		H90.6C90.4,27.1,90.3,25.8,90,24.6z M90.6,34h13.4v3.8H90C90.3,36.6,90.4,35.3,90.6,34z M103.9,15.1v3.8H88.2
		c-0.6-1.3-1.2-2.6-1.9-3.8H103.9z M88.2,43.5h15.7v3.8H86.3C87,46,87.6,44.8,88.2,43.5z"/>
	<polygon class="st0" points="56.7,42.7 65.4,34 69,34 69,28.3 62.4,28.3 62.4,19.6 53.6,28.3 50.1,28.3 50.1,34 56.7,34 	"/>
</g>
</svg>
