<?xml version="1.0" encoding="utf-8"?>
<!-- Generator: Adobe Illustrator 25.4.1, SVG Export Plug-In . SVG Version: 6.00 Build 0)  -->
<svg version="1.1" id="Calque_1" xmlns="http://www.w3.org/2000/svg" xmlns:xlink="http://www.w3.org/1999/xlink" x="0px" y="0px"
	 viewBox="0 0 1200 326.86" style="enable-background:new 0 0 1200 326.86;" xml:space="preserve">
<style type="text/css">
	.st0{fill:#FF0000;}
</style>
<g>
	<path class="st0" d="M297.18,78.5c-0.7,0-1.27,0.59-1.27,1.31s0.57,1.31,1.27,1.31c0.7,0,1.27-0.59,1.27-1.31
		S297.88,78.5,297.18,78.5"/>
	<polygon class="st0" points="352.77,327 351.81,113.56 353.76,113.56 353.76,109.39 349.51,109.39 349.51,104.04 315.85,104.04 
		315.85,95.92 302.99,95.92 301.06,90.61 297.89,90.61 297.89,81.14 297.18,81.14 296.47,81.14 296.47,90.61 290.57,90.61 
		290.57,95.92 290.57,102.03 290.57,104.04 285.69,104.04 285.69,109.39 281.44,109.39 281.44,113.56 283.38,113.56 284.34,327 	"/>
	<polygon class="st0" points="449.58,327 449.58,106.67 450.72,106.67 450.72,104.8 442.62,104.8 442.62,93.58 443.67,93.58 
		443.67,91.78 436.24,91.78 436.24,85.33 436.91,85.33 436.91,83.94 433.71,83.94 433.71,77.85 430.66,77.85 430.18,77.85 
		430.18,56.08 429.85,56.08 429.43,56.08 429.01,56.08 429.01,77.85 427.58,77.85 427.58,65.72 427.25,65.72 426.83,65.72 
		426.41,65.72 426.41,77.85 422.88,77.85 422.88,83.94 419.19,83.94 419.19,85.33 420.35,85.33 420.35,91.78 412.92,91.78 
		412.92,93.58 413.96,93.58 413.96,104.8 405.87,104.8 405.87,106.67 407.01,106.67 407.01,327 	"/>
	<polygon class="st0" points="596.22,327 596.22,146.87 591.66,146.87 591.66,74.24 579.92,74.24 579.92,54.78 575.72,54.78 
		575.72,26.25 552.6,26.25 552.6,5.28 550.55,5.28 550.55,26.25 546.02,26.25 546.02,0 543.96,0 543.96,26.25 529.34,26.25 
		529.34,74.24 521.79,74.24 521.79,146.87 515.31,146.87 515.31,327 	"/>
	<polygon class="st0" points="918.45,327 918.45,71.79 834.2,53.69 843.43,327 	"/>
</g>
</svg>
