<?xml version="1.0" encoding="utf-8"?>
<!-- Generator: Adobe Illustrator 25.4.1, SVG Export Plug-In . SVG Version: 6.00 Build 0)  -->
<svg version="1.1" id="Calque_1" xmlns="http://www.w3.org/2000/svg" xmlns:xlink="http://www.w3.org/1999/xlink" x="0px" y="0px"
	 viewBox="0 0 150 150" style="enable-background:new 0 0 150 150;" xml:space="preserve">
<style type="text/css">
	.st0{fill:#E52521;}
</style>
<path class="st0" d="M131.47,76.11h3.65c0.63,3.12,3.38,5.46,6.69,5.46c3.77,0,6.82-3.05,6.82-6.82c0-3.77-3.05-6.82-6.82-6.82
	c-3.3,0-6.06,2.35-6.69,5.46h-3.65c-0.16-6.62-1.47-12.96-3.74-18.83l3.37-1.4c1.78,2.64,5.22,3.75,8.27,2.49
	c3.48-1.44,5.13-5.43,3.69-8.91c-1.44-3.48-5.43-5.13-8.91-3.69c-3.05,1.26-4.7,4.49-4.09,7.61l-3.37,1.4
	c-2.64-5.93-6.27-11.31-10.68-15.95l2.6-2.6c2.65,1.76,6.26,1.47,8.59-0.87c2.66-2.66,2.66-6.98,0-9.65c-2.66-2.66-6.98-2.66-9.65,0
	c-2.34,2.34-2.62,5.94-0.87,8.59l-2.6,2.6c-4.63-4.42-10.02-8.05-15.95-10.68l1.4-3.37c3.12,0.61,6.34-1.04,7.61-4.09
	c1.44-3.48-0.21-7.47-3.69-8.91c-3.48-1.44-7.47,0.21-8.91,3.69c-1.26,3.05-0.15,6.49,2.49,8.27l-1.4,3.37
	c-5.87-2.27-12.21-3.58-18.83-3.74v-3.65c3.12-0.63,5.46-3.38,5.46-6.69c0-3.77-3.05-6.82-6.82-6.82c-3.77,0-6.82,3.05-6.82,6.82
	c0,3.3,2.35,6.06,5.46,6.69v3.65c-6.62,0.16-12.96,1.47-18.83,3.74l-1.4-3.37c2.64-1.78,3.75-5.22,2.49-8.27
	c-1.44-3.48-5.43-5.13-8.91-3.69c-3.48,1.44-5.13,5.43-3.69,8.91c1.26,3.05,4.49,4.7,7.61,4.09l1.4,3.37
	c-5.93,2.64-11.31,6.27-15.95,10.68l-2.6-2.6c1.76-2.65,1.47-6.26-0.87-8.59c-2.66-2.66-6.98-2.66-9.65,0
	c-2.66,2.66-2.66,6.98,0,9.65c2.34,2.34,5.94,2.62,8.59,0.87l2.6,2.6c-4.42,4.63-8.05,10.02-10.68,15.94l-3.37-1.4
	c0.61-3.12-1.04-6.34-4.09-7.61c-3.48-1.44-7.47,0.21-8.91,3.69c-1.44,3.48,0.21,7.47,3.69,8.91c3.05,1.26,6.49,0.15,8.27-2.49
	l3.37,1.4c-2.27,5.87-3.58,12.21-3.74,18.83h-3.65c-0.63-3.12-3.38-5.46-6.69-5.46c-3.77,0-6.82,3.05-6.82,6.82
	c0,3.77,3.05,6.82,6.82,6.82c3.3,0,6.06-2.35,6.69-5.46h3.65c0.16,6.62,1.47,12.96,3.74,18.83l-3.37,1.4
	c-1.78-2.64-5.22-3.75-8.27-2.49c-3.48,1.44-5.13,5.43-3.69,8.91c1.44,3.48,5.43,5.13,8.91,3.69c3.05-1.26,4.7-4.49,4.09-7.61
	l3.37-1.4c2.64,5.93,6.27,11.31,10.68,15.94l-2.6,2.6c-2.65-1.76-6.26-1.47-8.59,0.87c-2.66,2.66-2.66,6.98,0,9.65s6.98,2.66,9.65,0
	c2.34-2.34,2.62-5.94,0.87-8.59l2.6-2.6c4.63,4.42,10.02,8.05,15.95,10.68l-1.4,3.37c-3.12-0.61-6.34,1.04-7.61,4.09
	c-1.44,3.48,0.21,7.47,3.69,8.91c3.48,1.44,7.47-0.21,8.91-3.69c1.26-3.05,0.15-6.49-2.49-8.27l1.4-3.37
	c5.87,2.27,12.21,3.58,18.83,3.74v3.65c-3.12,0.63-5.46,3.38-5.46,6.69c0,3.77,3.05,6.82,6.82,6.82c3.77,0,6.82-3.05,6.82-6.82
	c0-3.3-2.35-6.06-5.46-6.69v-3.65c6.62-0.16,12.96-1.47,18.83-3.74l1.4,3.37c-2.64,1.78-3.75,5.22-2.49,8.27
	c1.44,3.48,5.43,5.13,8.91,3.69c3.48-1.44,5.13-5.43,3.69-8.91c-1.26-3.05-4.49-4.7-7.61-4.09l-1.4-3.37
	c5.93-2.64,11.31-6.27,15.95-10.68l2.6,2.6c-1.76,2.65-1.47,6.26,0.87,8.59c2.66,2.66,6.98,2.66,9.65,0c2.66-2.66,2.66-6.98,0-9.65
	c-2.34-2.34-5.94-2.62-8.59-0.87l-2.6-2.6c4.42-4.63,8.05-10.02,10.68-15.95l3.37,1.4c-0.61,3.12,1.04,6.34,4.09,7.61
	c3.48,1.44,7.47-0.21,8.91-3.69c1.44-3.48-0.21-7.47-3.69-8.91c-3.05-1.26-6.49-0.15-8.27,2.49l-3.37-1.4
	C130.01,89.07,131.31,82.73,131.47,76.11z M125.22,93.9l-13.01-5.39c1.46-3.88,2.31-8.05,2.46-12.4h14.09
	C128.6,82.37,127.36,88.35,125.22,93.9z M81.23,70.88L102.2,49.9c2.63,2.83,4.81,6.07,6.44,9.62L81.23,70.88z M109.69,62.03
	c1.33,3.56,2.11,7.38,2.25,11.36H82.27L109.69,62.03z M79.31,68.96l11.36-27.42c3.55,1.63,6.79,3.81,9.62,6.44L79.31,68.96z
	 M76.79,67.91V38.24c3.98,0.15,7.8,0.93,11.36,2.25L76.79,67.91z M74.07,67.91L62.71,40.49c3.56-1.33,7.38-2.11,11.36-2.25V67.91z
	 M71.56,68.96L50.59,47.98c2.83-2.63,6.07-4.81,9.62-6.44L71.56,68.96z M69.64,70.88L42.22,59.52c1.63-3.55,3.81-6.79,6.44-9.62
	L69.64,70.88z M68.6,73.39H38.92c0.15-3.98,0.93-7.8,2.25-11.36L68.6,73.39z M68.6,76.11L41.17,87.47
	c-1.33-3.56-2.11-7.38-2.25-11.36H68.6z M69.64,78.62L48.66,99.6c-2.63-2.83-4.81-6.07-6.44-9.62L69.64,78.62z M71.56,80.55
	l-11.36,27.42c-3.55-1.63-6.79-3.81-9.62-6.44L71.56,80.55z M74.07,81.59v29.68c-3.98-0.15-7.8-0.93-11.36-2.25L74.07,81.59z
	 M76.79,81.59l11.36,27.42c-3.56,1.33-7.38,2.11-11.36,2.25V81.59z M79.31,80.55l20.97,20.97c-2.83,2.63-6.07,4.81-9.62,6.44
	L79.31,80.55z M81.23,78.62l27.42,11.36c-1.63,3.55-3.81,6.79-6.44,9.62L81.23,78.62z M82.27,76.11h29.68
	c-0.15,3.98-0.93,7.8-2.25,11.36L82.27,76.11z M128.75,73.39h-14.09c-0.15-4.35-1-8.52-2.46-12.4l13.01-5.39
	C127.36,61.15,128.6,67.14,128.75,73.39z M124.18,53.09l-13.02,5.39c-1.77-3.88-4.16-7.42-7.03-10.5l9.96-9.96
	C118.25,42.41,121.68,47.5,124.18,53.09z M112.16,36.1l-9.96,9.96c-3.08-2.88-6.62-5.26-10.5-7.03l5.39-13.02
	C102.69,28.51,107.78,31.94,112.16,36.1z M94.58,24.97l-5.39,13.01c-3.88-1.46-8.05-2.31-12.4-2.46V21.43
	C83.05,21.59,89.04,22.82,94.58,24.97z M74.07,21.43v14.09c-4.35,0.15-8.52,1-12.4,2.46l-5.39-13.01
	C61.83,22.82,67.82,21.59,74.07,21.43z M53.77,26.01l5.39,13.02c-3.88,1.77-7.42,4.16-10.5,7.03l-9.96-9.96
	C43.09,31.94,48.18,28.51,53.77,26.01z M36.79,38.03l9.96,9.96c-2.88,3.08-5.26,6.62-7.03,10.5l-13.02-5.39
	C29.19,47.5,32.62,42.41,36.79,38.03z M25.65,55.6l13.01,5.39c-1.46,3.88-2.31,8.05-2.46,12.4H22.11
	C22.27,67.14,23.51,61.15,25.65,55.6z M22.11,76.11H36.2c0.15,4.35,1,8.52,2.46,12.4L25.65,93.9
	C23.51,88.35,22.27,82.37,22.11,76.11z M26.69,96.41l13.02-5.39c1.77,3.88,4.16,7.42,7.03,10.5l-9.96,9.96
	C32.62,107.09,29.19,102.01,26.69,96.41z M38.71,113.4l9.96-9.96c3.08,2.88,6.62,5.26,10.5,7.03l-5.39,13.02
	C48.18,121,43.09,117.57,38.71,113.4z M56.28,124.54l5.39-13.01c3.88,1.46,8.05,2.31,12.4,2.46v14.09
	C67.82,127.91,61.83,126.68,56.28,124.54z M76.79,128.07v-14.09c4.35-0.15,8.52-1,12.4-2.46l5.39,13.01
	C89.04,126.68,83.05,127.91,76.79,128.07z M97.09,123.49l-5.39-13.02c3.88-1.77,7.42-4.16,10.5-7.03l9.96,9.96
	C107.78,117.57,102.69,121,97.09,123.49z M114.08,111.48l-9.96-9.96c2.88-3.08,5.26-6.62,7.03-10.5l13.02,5.39
	C121.68,102.01,118.25,107.09,114.08,111.48z"/>
</svg>
