<?xml version="1.0" encoding="utf-8"?>
<!-- Generator: Adobe Illustrator 25.4.1, SVG Export Plug-In . SVG Version: 6.00 Build 0)  -->
<svg version="1.1" id="Calque_1" xmlns="http://www.w3.org/2000/svg" xmlns:xlink="http://www.w3.org/1999/xlink" x="0px" y="0px"
	 viewBox="0 0 1200 326.86" style="enable-background:new 0 0 1200 326.86;" xml:space="preserve">
<style type="text/css">
	.st0{fill:#FF0000;}
</style>
<g>
	<path class="st0" d="M935.51,153.27c0-0.7-0.48-1.27-1.07-1.27s-1.07,0.57-1.07,1.27c0,0.7,0.48,1.27,1.07,1.27
		S935.51,153.97,935.51,153.27z"/>
	<polygon class="st0" points="1170.77,308.02 1170.77,271.76 1139.32,283.82 1139.32,308.02 1115,308.02 1115,297.19 
		1083.56,297.19 1083.56,308.02 1052.13,308.02 1045.49,263.66 1031.91,263.66 1031.91,226.84 1033.59,226.84 1033.59,223.51 
		1027,223.51 1027,209.18 1026.2,209.18 1026.2,223.51 1021.64,223.51 1021.64,211.77 1020.83,211.77 1020.83,223.51 993.37,223.51 
		993.37,226.84 995.24,226.84 995.24,301.55 963.89,301.55 963.89,268.08 946.03,268.08 946.03,185.86 947.66,185.86 947.66,181.83 
		944.1,181.83 944.1,176.66 939.99,176.66 939.99,174.72 939.99,168.82 939.99,163.7 935.03,163.7 935.03,154.54 934.44,154.54 
		933.84,154.54 933.84,163.7 931.18,163.7 929.56,168.82 918.76,168.82 918.76,176.66 890.47,176.66 890.47,181.83 886.9,181.83 
		886.9,185.86 888.54,185.86 888.54,239.36 864.87,239.36 864.87,291.93 838.6,280.3 838.6,229.28 842.84,229.28 842.84,225.53 
		835.39,225.53 835.39,215.36 803.47,215.36 803.47,225.53 793.04,225.53 793.04,215.36 787.68,215.36 787.68,225.53 782.32,225.53 
		782.32,215.36 776.42,215.36 776.42,225.53 764.09,225.53 764.09,229.28 765.98,229.28 765.98,300 754,300 754,299.26 
		751.83,299.26 751.83,279.1 754,279.1 754,277.48 751.83,277.48 751.83,257.34 754,257.34 754,255.72 751.83,255.72 751.83,235.57 
		754,235.57 754,233.95 751.83,233.95 751.83,213.8 754,213.8 754,212.19 751.83,212.19 751.83,192.03 754,192.03 754,190.41 
		751.83,190.41 751.83,169.56 755.55,169.56 755.55,167.94 757.44,167.94 757.44,163.52 722.18,163.52 722.18,158.6 723.32,158.6 
		723.32,157.18 704.13,157.18 704.13,158.6 705.28,158.6 705.28,163.52 696.54,163.52 696.54,167.94 698.42,167.94 698.42,169.56 
		702.13,169.56 702.13,190.41 699.97,190.41 699.97,192.03 702.13,192.03 702.13,212.19 699.97,212.19 699.97,213.8 702.13,213.8 
		702.13,233.95 699.97,233.95 699.97,235.57 702.13,235.57 702.13,255.72 699.97,255.72 699.97,257.34 702.13,257.34 702.13,277.48 
		699.97,277.48 699.97,279.1 702.13,279.1 702.13,299.26 699.97,299.26 699.97,300.87 702.13,300.87 702.13,317.34 690.1,317.34 
		690.1,253.71 641.68,253.71 641.68,300 633.82,300 633.82,155.79 628,155.79 628,159.5 617.26,162.13 617.26,159.72 611.45,159.72 
		611.45,163.55 600.72,166.17 600.72,163.41 594.91,163.41 594.91,167.59 584.17,170.22 584.17,167.94 578.35,167.94 578.35,171.64 
		567.62,174.25 567.62,172.3 561.8,172.3 561.8,313.9 553.62,313.9 553.62,238.41 523.31,238.41 523.31,284.83 492.24,284.83 
		492.24,245.24 488.41,245.24 488.41,232.24 490.68,232.24 490.68,230.93 480.63,230.93 480.63,226.84 479.55,226.84 479.55,230.93 
		476.34,230.93 476.34,209.95 475.54,209.95 475.54,230.93 471.35,230.93 471.35,232.24 473.82,232.24 473.82,245.24 453.31,245.24 
		453.31,275.44 433.35,275.44 422.92,313.9 402,313.9 402,188.33 374.3,188.33 374.3,183.83 375.87,183.83 375.87,182.25 
		354.89,182.25 354.89,183.83 356.54,183.83 356.54,188.33 356.54,195.56 356.54,281.57 343.48,281.57 343.48,249.07 348.13,249.07 
		348.13,246.13 315.26,246.13 315.26,226.5 308.99,226.5 308.99,222.46 295,222.46 295,226.5 283.61,226.5 283.61,296.6 
		246.25,296.6 246.25,244.61 214.81,244.61 214.81,285.67 187.51,285.67 187.51,311.94 167.83,311.94 167.83,278.91 141.95,278.91 
		141.95,307.07 87.04,307.07 87.04,285.03 55.6,269.33 55.6,307.07 0,307.07 0,327 141.95,327 149.87,327 162.81,327 167.83,327 
		187.51,327 214.81,327 223.98,327 228.89,327 246.25,327 283.61,327 295,327 308.99,327 315.26,327 339.78,327 343.48,327 
		356.54,327 378.44,327 389.23,327 402,327 453.31,327 465.15,327 485.16,327 492.24,327 523.84,327 532.34,327 561.8,327 
		564.71,327 567.62,327 578.35,327 584.17,327 594.91,327 599.76,327 600.72,327 611.45,327 617.26,327 626.49,327 628,327 
		630.92,327 633.82,327 641.68,327 681.71,327 687.42,327 690.1,327 702.13,327 723.32,327 742.72,327 751.83,327 765.98,327 
		801.08,327 838.21,327 838.6,327 864.87,327 879.55,327 888.54,327 894.21,327 938.16,327 946.03,327 955.44,327 963.89,327 
		995.24,327 1018.56,327 1023.33,327 1031.91,327 1200,327 1200,308.02 	"/>
</g>
</svg>
